<?xml version="1.0" encoding="UTF-8"?>
<svg id="Layer_2" data-name="Layer 2" xmlns="http://www.w3.org/2000/svg" viewBox="0 0 599.55 598.78">
  <defs>
    <style>
      .cls-1 {
        fill: #fff;
      }
    </style>
  </defs>
  <g id="Layer_1-2" data-name="Layer 1">
    <g>
      <path class="cls-1" d="m252.18,598.78H7.74c-2.3-5.84-6.92-11.84-6.52-17.49,2.31-32.57,37.55-58.26,69.88-52.18,2.09.39,6.05-1.17,6.81-2.87,22.92-51.08,89.93-60.09,125.97-16.91.89,1.07,5.42,1.04,5.69.41,9.97-23.04,20.4-45.95,28.58-69.64,1.33-3.84-6.34-13.14-11.91-16.56-17.73-10.88-36.43-20.17-54.75-30.08,15.49-9.81,30.73-20.06,46.62-29.16,4.55-2.61,11.06-1.65,16.52-2.94,1.4-.33,3.41-3.16,3.18-4.51-2.81-16.25-5.03-32.72-9.58-48.5-1.61-5.59-9.16-9.47-13.99-14.13-2.39,2.86-4.28,6.5-7.27,8.44-12.56,8.17-24.59,19.19-38.45,22.73-13.02,3.33-29-5.12-42.12-1.95-39.42,9.54-73.37,2.05-100.81-27.39C-.4,268.17-7.13,234.78,7.87,199.31c15.67-37.07,45.21-56.03,85.19-59.16,1.33-.1,3.59-2.65,3.54-3.99-1.65-45.59,26.8-80.98,71.68-88.41,11.63-1.93,28.26,1.67,34.38-4.91,53.45-57.46,144.16-57.37,195.4,1.82,1.69,1.96,5.64,3.31,8.24,2.93,53.57-7.9,99.49,33.24,97.5,87.31-.06,1.75,3.23,5.17,5.04,5.22,43.53,1.33,86.94,40.3,89.59,80.8l1.12,7.11v11.7c-.34,1.61-.68,3.21-1.02,4.82-.03,1.14-.05,2.28-.08,3.42-4.55,34.46-32.61,68.11-68.53,75.14-22.73,4.45-47.25-.83-70.31,2.63-30.18,4.52-53.1-3.17-70.24-28.36-.89-1.31-5.35-1.94-5.39-1.81-7.05,18.15-14.41,36.22-20.07,54.81-.87,2.85,5.3,9.53,9.61,11.99,18.13,10.37,36.8,19.8,55.27,29.58-15.53,9.98-30.75,20.49-46.76,29.63-5.02,2.87-12.16,1.94-18.29,2.98-1.37.23-3.77,1.84-3.68,2.11,9.64,27.45,19.43,54.86,29.61,82.12.27.71,6.38.81,7.58-.62,34.75-41.53,102.16-32.44,124.47,16.79.98,2.16,5.4,4.46,7.73,4.03,30.68-5.59,65.76,18.91,69.01,48.62.36,2,.73,4,1.09,5.99v8.19c-2.34,2.34-4.68,4.68-7.02,7.02h-244.44c-2.14-5.22-7.35-12.03-5.67-15.27,2.17-4.2,9.82-7.74,15.15-7.78,63.88-.52,127.77-.3,191.66-.38,7.95-.01,15.9-.7,23.85-1.07-8.54-7.03-16.19-16.08-25.93-20.38-6.47-2.85-16.18,2.71-23.98,1.51-7.06-1.09-14.44-5.12-20.02-9.82-15.15-12.8-27.99-34.74-44.47-37.64-14.42-2.54-32.34,16.19-49.1,24.8-5.93,3.05-14.95,7.55-19.21,5.23-43.5-23.7-50.91-65.9-54.09-109.9-.37-.33-.74-.66-1.11-.99-15.21-1.05-28.17-.19-23.99,21.41.49,2.51-7.17,9.21-11.06,9.22-3.88,0-11.54-6.7-11.05-9.21,4.19-21.59-8.75-22.47-23.98-21.41-.37.33-.74.66-1.11.98-3.21,44.03-10.64,86.25-54.16,109.98-4.22,2.3-13.11-1.91-18.9-4.9-16.89-8.72-35.01-27.75-49.47-25.14-16.56,2.99-29.36,25.28-44.55,38.32-5.33,4.58-12.6,7.47-19.47,9.59-15.63,4.82-31.58,8.58-47.29,13.14-1.36.4-1.91,3.57-2.84,5.46,2.01.3,4.01.85,6.02.85,69.78.04,139.56-.13,209.33.37,5.33.04,12.98,3.58,15.17,7.77,1.69,3.23-3.52,10.06-5.66,15.29ZM305.52,17.73c-23.96,8.25-41.91,12.67-58.17,20.57-14.07,6.84-34.9,15.58-6.44,33.13,3.48,2.14,2.04,12.26,2.89,18.68-6.4-.85-14.56.52-18.92-2.92-23.7-18.68-48.79-23.54-75.12-8-24.81,14.65-33.15,37.04-28.23,65.94.93,5.47-10.56,18.99-15.43,18.57-37.81-3.28-75,22.38-80.81,58.24-6.11,37.73,19.58,74.04,58.11,80.5,10.12,1.7,31.62,10.58,16.16-16.02-2.46-4.24-3.82-10.73-2.45-15.17,1.62-5.23,6.77-9.37,10.39-13.98,4.2,4.26,8.3,8.62,12.61,12.77,11.81,11.36,23,30.49,35.77,31.64,11.83,1.06,25-17.75,38.38-26.59,6.31-4.17,17.44-9.93,21.37-7.35,25.57,16.8,49.52,17.1,74.9,0,4.52-3.04,14.57-3.16,19.03-.14,25.57,17.34,49.69,16.99,75.37-.1,3.81-2.53,14.81,3.25,21.03,7.37,13.5,8.94,26.93,27.94,38.77,26.74,12.8-1.3,23.73-20.92,35.5-32.51,4.06-4,8.21-7.89,12.32-11.84,3.69,4.16,10.58,8.42,10.43,12.45-.31,8.97-4.53,17.75-6.24,26.78-.4,2.13,4.01,7.2,4.15,7.13,22.26-12.13,52.29-19.68,64.01-38.57,10.28-16.58,8.45-52.33-3.41-67.89-13.45-17.64-44.2-21.84-67.01-32.76-6.86-3.28-18.31-11.14-17.49-14.09,8.45-30.64.47-54.97-26.42-70.98-27.39-16.32-53.41-10.9-77.1,9.95-3.2,2.82-10.53,3.83-14.38,2.13-3.14-1.38-6.7-10.06-5.26-12.06,5.16-7.2,12.52-12.79,18.65-19.36,1.26-1.35,1.68-5.93,1.01-6.29-23.25-12.56-46.67-24.79-67.97-35.97Zm-17.09,352.2c0-9.93-1.21-20.08.51-29.7.85-4.76,7.1-8.56,10.91-12.79,3.99,4.25,10.97,8.21,11.42,12.8,1.46,15.05,1.63,30.43.25,45.49-1.39,15.08,2.08,22.62,18.43,17.68,2.1-.63,4.83-3.34,5.06-5.35,1.85-16.21,2.68-32.54,4.8-48.7,1.98-15.1,12.4-36.8,6.15-43.5-9.87-10.56-31.36-16.72-46.54-14.63-41.7,5.76-46.46,15.99-38.84,58.75,2.31,12.98,1.04,26.91,5.19,39.12,2.21,6.51,12.49,10.27,19.13,15.27,1.18-5.05,2.92-10.06,3.4-15.18.59-6.37.14-12.84.14-19.27Zm68.83,23.29c1.44,3.14,2.91,7.64,3.55,7.53,12.07-2.19,24.05-4.91,36.04-7.53-11.61-2.76-23.19-5.73-34.91-7.9-1.01-.19-3,4.97-4.68,7.9Zm-113.96.89c-1.94-3.48-3.95-8.94-5.04-8.76-11.71,1.93-23.27,4.75-34.88,7.32,11.82,2.78,23.6,5.7,35.51,8.04.89.18,2.61-3.82,4.41-6.61Z"/>
      <path class="cls-1" d="m295.46,598.78c-1.23-6.67-2.46-13.33-3.69-20,5.57,0,11.15,0,16.72,0-1.23,6.67-2.45,13.33-3.68,20h-9.36Z"/>
      <path class="cls-1" d="m598.43,220.91l1.12.09v7.02l-1.12-7.11Z"/>
      <path class="cls-1" d="m598.46,577.58c.36.05.73.1,1.09.15v5.85c-.36-2-.73-4-1.09-5.99Z"/>
      <path class="cls-1" d="m598.53,244.54c.34-1.61.68-3.21,1.02-4.82v4.68c-.34.03-.68.08-1.02.14Z"/>
      <path class="cls-1" d="m598.53,244.54c.34-.06.68-.11,1.02-.14v3.51c-.37.02-.73.03-1.1.05.03-1.14.05-2.28.08-3.42Z"/>
      <path class="cls-1" d="m265.1,427.06c-.37.33-.74.66-1.11.98.37-.33.74-.66,1.11-.98Z"/>
      <path class="cls-1" d="m336.28,428.05c-.37-.33-.74-.66-1.11-.99.37.33.74.66,1.11.99Z"/>
      <path class="cls-1" d="m576.98,67.03c-13.64,8.83-28.42,25.92-40.61,24.23-12.97-1.79-32.6-21.44-32.5-33.15.1-11.68,20.11-30.97,33.11-32.52,12.22-1.45,26.67,15.91,40.14,24.99-.05,5.48-.1,10.96-.14,16.44Zm-23.6-8.38c-7.95-5.65-12.58-11.5-16.63-11.12-4.29.4-8.02,6.72-12,10.45,3.88,4.03,7.31,10.54,11.76,11.33,3.81.67,8.77-5.22,16.87-10.65Z"/>
      <path class="cls-1" d="m79.3,105.11c-8.75,5.78-13.67,11.58-17.74,11.03-4.33-.59-10.51-6.96-10.87-11.23-.3-3.47,6.56-10.25,10.71-10.65,4.26-.4,9.09,5.16,17.9,10.85Z"/>
      <path class="cls-1" d="m318.6,505.43c-7.84,9.92-13.07,16.54-18.3,23.17-3.95-10.52-9.45-20.8-11.1-31.67-.66-4.38,7.12-10.03,11.06-15.11,5.28,6.8,10.56,13.59,18.34,23.61Z"/>
    </g>
  </g>
</svg>