<?xml version="1.0" encoding="UTF-8"?>
<svg id="Layer_2" data-name="Layer 2" xmlns="http://www.w3.org/2000/svg" viewBox="0 0 525.04 517.77">
  <defs>
    <style>
      .cls-1 {
        fill: #fff;
      }
    </style>
  </defs>
  <g id="Layer_1-2" data-name="Layer 1">
    <g>
      <path class="cls-1" d="m524.89,160.49c0,33.94.18,67.87-.03,101.8-.74,117.11-89.97,225.53-204.3,249.45-148.67,31.12-282.2-61.42-314.93-205.17C1.66,289.2-.08,271.25,0,253.18.28,188.58.1,123.98.11,59.38.11,14.54,25.31-5.49,69.42,2.28c83.06,14.62,166.74,19.75,251.07,14.98,50.88-2.88,101.18-9.72,151.59-16.81,29.95-4.21,53.01,21.74,52.96,48.42-.07,37.21-.02,74.41-.02,111.62-.05,0-.09,0-.14,0Zm-29.33,2.3c0-38.43.04-72.36-.01-106.3-.03-20.79-8.83-28.7-29.14-25.12-42.2,7.44-84.63,12.4-127.42,14.96-93.27,5.58-186,1.78-278.08-14.62-22.23-3.96-31.32,3.46-31.31,26.35,0,62.97-.16,125.94.11,188.91.08,19.13,2.51,38.03,6.63,56.84,34.38,157.02,212.54,236.19,352.16,146.8,62.82-40.22,97.64-98.87,105.09-173.42,3.95-39.59.57-79.27,1.97-114.41Z"/>
      <path class="cls-1" d="m263.7,388.22c-42.08-1.82-71.32-23.33-94.06-55.5-5.39-7.63-3.45-15.08,3.93-20.29,6.88-4.86,13.89-4.08,19.62,2.52,3.75,4.31,7.12,8.96,10.87,13.27,32.27,37.15,78.91,45.81,113.51,10.9,5.15-5.2,9.35-18.34,14.24-23.81,5.6-6.28,12.67-7.94,19.6-3.05,7.22,5.08,9.52,12.45,4.06,20.27-22.61,32.38-52.08,53.46-91.76,55.7Z"/>
      <path class="cls-1" d="m368.27,171.79c19.86,3.69,30.27,13.72,49.86,43.69,2.71,4.14,8.96,3.46,10.66-1.18l.05-.13c5.36-14.75-.02-28.29-9.56-39.79-18.15-21.89-41.92-33.87-71-38.12-.28-.04-.56-.06-.84-.06-8.04-.07-17.2-.64-26.21,2.19-19.2,6.04-29.22,9.38-26,26.69.96,5.17,13.29,9.65,16.45,5.44,0,0,22.7-5.02,56.6,1.27Z"/>
      <path class="cls-1" d="m143.68,171.79c-19.86,3.69-30.27,13.72-49.86,43.69-2.71,4.14-8.96,3.46-10.66-1.18l-.05-.13c-5.36-14.75.02-28.29,9.56-39.79,18.15-21.89,41.92-33.87,71-38.12.28-.04.56-.06.84-.06,8.04-.07,17.2-.64,26.21,2.19,19.2,6.04,29.22,9.38,26,26.69-.96,5.17-13.29,9.65-16.45,5.44,0,0-22.7-5.02-56.6,1.27Z"/>
    </g>
  </g>
</svg>