<?xml version="1.0" encoding="UTF-8"?>
<svg id="Layer_2" data-name="Layer 2" xmlns="http://www.w3.org/2000/svg" viewBox="0 0 525.04 517.77">
  <defs>
    <style>
      .cls-1 {
        fill: #fff;
      }
    </style>
  </defs>
  <g id="Layer_1-2" data-name="Layer 1">
    <g>
      <path class="cls-1" d="m524.89,160.49c0,33.94.18,67.87-.03,101.8-.74,117.11-89.97,225.53-204.3,249.45-148.67,31.12-282.2-61.42-314.93-205.17C1.66,289.2-.08,271.25,0,253.18.28,188.58.1,123.98.11,59.38.11,14.54,25.31-5.49,69.42,2.28c83.06,14.62,166.74,19.75,251.07,14.98,50.88-2.88,101.18-9.72,151.59-16.81,29.95-4.21,53.01,21.74,52.96,48.42-.07,37.21-.02,74.41-.02,111.62-.05,0-.09,0-.14,0Zm-29.33,2.3c0-38.43.04-72.36-.01-106.3-.03-20.79-8.83-28.7-29.14-25.12-42.2,7.44-84.63,12.4-127.42,14.96-93.27,5.58-186,1.78-278.08-14.62-22.23-3.96-31.32,3.46-31.31,26.35,0,62.97-.16,125.94.11,188.91.08,19.13,2.51,38.03,6.63,56.84,34.38,157.02,212.54,236.19,352.16,146.8,62.82-40.22,97.64-98.87,105.09-173.42,3.95-39.59.57-79.27,1.97-114.41Z"/>
      <path class="cls-1" d="m173.06,133.08c8.1.8,17.44,1.15,26.25,4.99,24.56,10.69,31.1,37.07,12.25,58.21-25.69,28.81-58.78,40.16-97.02,32.94-14.8-2.79-26.47-11.92-30.24-27.16-3.77-15.23,3.01-28.12,13.71-38.56,20.46-19.94,45.51-29.35,75.05-30.43Zm-37.65,67.85c18.64-.5,35.84-6.92,50.21-20.19,3.18-2.94,7.5-6.39,5.49-11.37-1.85-4.58-7.19-5.09-11.44-5.52-19-1.92-36.42,3.06-52.01,13.81-6.17,4.26-15.43,9.2-12.81,17.43,2.48,7.78,12.53,5.3,20.55,5.85Z"/>
      <path class="cls-1" d="m351.31,133.08c26.88,1.19,49.07,8.15,68.08,23.63,19.04,15.51,26.25,32.92,20.42,48.31-6.3,16.64-24.91,27.81-48.01,26.81-28.96-1.26-55.12-10.54-75.39-32.31-10.38-11.15-17.36-24.17-11.61-39.95,5.97-16.36,19.42-23.15,35.77-25.32,4.44-.59,8.91-.98,10.73-1.18Zm39.36,67.62c2.04,0,4.08,0,6.12,0,5.42-.02,11.86-.31,13.85-5.57,2.12-5.58-3.49-9.52-7.4-12.88-16.55-14.27-36.03-19.91-57.62-18.46-4.35.29-9.52,1.06-11.33,5.68-1.94,4.96,2.11,8.42,5.39,11.38,14.46,13.03,31.52,19.62,50.98,19.85Z"/>
      <path class="cls-1" d="m261.4,298.71c42.08,1.82,71.32,23.33,94.06,55.5,5.39,7.63,3.45,15.08-3.93,20.29-6.88,4.86-13.89,4.08-19.62-2.52-3.75-4.31-7.12-8.96-10.87-13.27-32.27-37.15-78.91-38.81-113.51-3.9-5.15,5.2-9.35,11.34-14.24,16.81-5.6,6.28-12.67,7.94-19.6,3.05-7.22-5.08-9.52-12.45-4.06-20.27,22.61-32.38,52.08-53.46,91.76-55.7Z"/>
    </g>
  </g>
</svg>