<?xml version="1.0" encoding="UTF-8"?>
<svg id="Layer_2" data-name="Layer 2" xmlns="http://www.w3.org/2000/svg" viewBox="0 0 566.09 575.92">
  <defs>
    <style>
      .cls-1 {
        fill: #fff;
      }
    </style>
  </defs>
  <g id="Layer_1-2" data-name="Layer 1">
    <g>
      <path class="cls-1" d="m18.3,575.92c-7.34-3.13-13.52-7.33-16.33-15.42-5.32-15.3,5.37-18.02,21.56-18.36,1.15-.02,2.31,0,3.53,0,.6-5.86,1.36-11.53,1.75-17.23,1.93-28.34,25.16-48.38,50.15-61.14,2.71-1.38,4.61-2.49,4.61-6.21-.12-84.19-4.71-181.49-4.71-266.13-14.6-3.87-22.02-5.67-33.8-15.23-14.44-11.73-24.26-18.54-32.14-35.22C4.38,122.9-.52,109.94.04,90.83c.17-5.7,1.07-11.53,3.5-16.9.46-1.02.99-2.11,1.06-3.19.4-6.12,3.5-10.9,7-15.69,3.78-5.16,2.28-9.68,6.6-14.27,8.37-8.9,14.13-16.39,23.61-24.08C52.29,8.21,74.55.73,87.98.03c8.08-.42,20.93,3.09,29.02,3.09,114.02-.07,224.32,2.5,338.34,2.47,21.02,0,29.89-6.57,48.78,3.7,15.72,8.55,27.48,13.19,37.66,27.54,10.69,15.07,19,31.08,19.14,52.73,2.84,29.69-8.29,50.22-19.14,65.45-13.53,16.93-28.26,28.77-48.45,35.81-3.6,1.26-.27,15.29-.27,18.39.06,48.34.29,96.68-.2,145.01-.08,7.84.87,16.43-5.22,23.51-6.52,7.59,4.32,11.13-4.94,9.7-7.83-1.21-13.22-6.63-15.89-13.92-1.4-3.82-1.57-8.24-1.58-12.39-.1-50.29-4.07-101.57-4.08-151.86,0-.75.42-17.4.37-17.81-31.86-6.62-71.82-20.24-87.71-48.6-2.76-4.92-4.87-10.22-7.86-14.98-.97-1.55-3.77-2.73-5.75-2.74-31.57-.17-63.15-3.12-94.72-3.12-19.3,0-38.59.07-57.89-.06-3.94-.03-6.24.58-8.14,4.92-10.97,25.01-29.25,50.76-54.58,62.24-6.31,2.86-12.49,3.84-19.08,6.01-1.21.4-9.97,1.26-12.18,1.08l3.11,269.6c113.68,0,239.02,5.88,353.35,6.1,21.36.04,40.47,6.9,55.23,23.17,9.9,10.91,10.52,8.54,12.24,23.34.88,7.64,1.21,15.35,1.82,23.52,7.19-.04,13.95,1.71,19.92,7.08,11.39,10.24,8.41,19.36-8.39,25.74-.6.23-1.07.78-1.6,1.18H18.3ZM282.61,36.87c-58.27,0-116.54-.03-174.8.06-5.36,0-10.84.19-16.04,1.32-18.33,3.98-32.64,14.32-42.06,30.29-4.1,6.96-6.53,15.4-7.67,23.46-.92,6.54,1.24,13.51,1.98,20.29.95,8.75,4,16.57,10.16,23,1.04,1.08,2.87,1.66,3.44,2.88,4.85,10.49,14.5,14.72,24.16,19.12,9.08,4.13,18.67,3.47,28.19,3.51,1.21,0,2.44-.73,3.64-1.19,1.9-.72,3.72-1.72,5.67-2.19,2.75-.67,5.97-.27,8.33-1.54,16.39-8.83,27.23-22.51,32.09-40.31,5.09-18.63,12.43-24.46,27.1-24.56,64.11-.43,128.23-.46,192.34.03,13.74.11,21.88,5.27,26.01,17.84,1.58,4.82,2.86,9.79,4.96,14.38,1.8,3.92,5.12,7.16,6.86,11.1,7.81,17.65,23.27,23.49,40.46,26.36,5.27.88,11.05,1.09,16.19-.12,11.39-2.67,22.02-7.33,31.03-15.26,11.55-10.15,16.54-23.66,20-37.94,2.06-8.5.74-17.01-1.84-25.22-3.23-10.25-6.77-20.28-16.85-26.42-3.98-2.43-6.72-6.86-10.64-9.45-11.45-7.57-24.68-9.27-37.92-9.33-58.27-.25-116.54-.11-174.8-.11Zm220.71,505.05c-1.53-8.69,1.49-17.14-1.61-24.23-4.66-10.66-26.44-22.87-37.59-22.91-17.73-.07-37.15,0-54.88,0-102.08,0-207.95-.17-310.04,0-13.51.02-18.05,13.67-21.89,25.44-2.19,6.7-5.63,16.29-6.33,23.7,139.62,0,292.05-2,432.33-2Z"/>
      <path class="cls-1" d="m214.89,310.58c0,24.17.06,48.34-.04,72.5-.02,5.3.25,11.03-1.21,15.74-1.09,3.5-4.54,6.1-7.31,8.33-6.12,4.92-12.51,5.88-18.95.6-5.66-4.64-8.6-11.18-8.6-19.89,0-48.73.08-97.45-.08-146.18-.03-8.55,2.68-15.09,7.66-19.57,6.26-5.64,13.35-5.44,19.76-.22,5.39,4.39,9.06,10.19,8.89,19.7-.42,22.99-.14,45.99-.14,68.99h.03Z"/>
      <path class="cls-1" d="m391.38,314.71c0,23.56.27,47.13-.1,70.68-.23,14.48-6.55,26.39-16.39,25.78-5.78-.36-11.36-7.63-13.53-15.88-1.18-4.47-.45-8.37-.45-12.52-.01-47.9.17-95.8-.14-143.69-.04-6.91,1.54-13.78,4.14-16.03,4.41-3.8,9.81-7.21,15.53-3.52,7.22,4.66,10.94,12.78,10.94,25.08,0,23.37,0,46.73,0,70.1Z"/>
      <path class="cls-1" d="m269.69,314.14c0-24.16.26-48.34-.11-72.49-.19-12.44,6.8-23.81,13.5-23.46,8.79.47,14.85,9.93,14.89,23.71.14,47.94.07,95.88.02,143.82,0,3.82-.59,7.63-.64,11.45-.08,6.93-4.11,7.34-6.39,10.09-4.61,5.55-9.89,5.58-14.8.27-4.24-4.59-6.52-11.1-6.5-19.73.05-24.55.02-49.11.02-73.66Z"/>
      <path class="cls-1" d="m472.74,72.64c4.06,4.84,9.13,9.15,12,14.61,8.02,15.22-.44,35.16-20.71,35.01-13.37-.1-23.46-10.08-23.5-23.37-.04-11.88,10.28-22.01,22.45-22.33,2.73-.07,5.44-1.1,8.15-1.69.54-.74,1.07-1.49,1.61-2.23Z"/>
      <path class="cls-1" d="m102.09,76.64c14.76-1.73,23.82,10.87,23.7,22.47-.15,14.42-10.06,22.97-22.64,24-12.99,1.06-25.02-12.69-24.24-24.06.94-13.69,9.11-22.41,23.19-22.41Z"/>
    </g>
  </g>
</svg>