<?xml version="1.0" encoding="UTF-8"?>
<svg id="Layer_2" data-name="Layer 2" xmlns="http://www.w3.org/2000/svg" viewBox="0 0 598.82 599.44">
  <defs>
    <style>
      .cls-1 {
        fill: #fff;
      }
    </style>
  </defs>
  <g id="Layer_1-2" data-name="Layer 1">
    <g>
      <path class="cls-1" d="m127.49,0c19.1,24.11,37.8,48.54,57.49,72.16,7.76,9.3,17.73,16.77,26.69,25.07.3.33.59.66.89,1,20.32,20.87,45.84,38.78,59.83,63.27,25.58,44.8-15.48,120.3-60.45,118.63-9.76-.36-19.56.33-29.34.53-1.59-1.59-3.17-3.17-4.76-4.76,5.98-9.32,10.24-20.75,18.41-27.38,9.25-7.51,21.99-10.7,33.22-15.78.31-.31.63-.62.94-.93,19.02-23.53,19.61-47.36,1.16-71.5-1.19-1.18-2.38-2.36-3.57-3.54-14.4-11.76-28.81-23.53-43.21-35.29-.46-.34-.92-.68-1.37-1.02-12.78-13.44-25.55-26.88-38.35-40.3-1.37-1.44-2.88-2.75-4.32-4.12-.13,1.89-.36,3.78-.37,5.67-.08,90.51-.15,181.02-.21,271.52-.31,1.6-.62,3.2-.93,4.8-1.4,29.49-17.72,48.37-43.2,60.74-.42.29-.85.57-1.27.86-23.79-4.64-47.59-9.29-71.38-13.93-.43-.32-.86-.64-1.29-.95-7.36-13.27-14.72-26.54-22.09-39.82,0-1.95,0-3.9,0-5.85v-14.04C0,343.47,0,341.91,0,340.35c1.26-3.9,2.52-7.81,3.77-11.71.29-.43.57-.85.86-1.28,13.47-35.84,56.03-54.11,91.12-39.66,2.04.84,9.1-3.66,9.11-5.7.47-86.13.1-172.26.91-258.38C105.85,15.71,113.06,7.87,116.96,0c.78,0,1.56,0,2.34,0h1.17C122.81,0,125.15,0,127.49,0Zm-57.79,404.85c16.83-24.57,34.76-39.32,33.14-51.46-1.74-13.01-21.87-23.57-33.97-35.21-11.25,12.31-29.39,23.51-31.59,37.26-1.78,11.11,15.66,25.29,32.42,49.41Z"/>
      <path class="cls-1" d="m591.77,145.17c2.31,3.84,4.62,7.67,6.93,11.51-.3.39-.61.78-.91,1.18-.43,3.79-1.23,7.59-1.24,11.38-.07,93.41-.07,186.82,0,280.23,0,4.58.8,9.15,1.23,13.73-1.23,6.96-2.45,13.92-3.68,20.88-.31.43-.62.86-.93,1.29-2.44,4.67-4.88,9.34-7.31,14.02l-3.41,4.7c-2.73,2.73-5.47,5.46-8.2,8.2-1.56,1.14-3.13,2.27-4.69,3.41-5.45,2.83-10.9,5.66-16.35,8.49-.47.29-.93.59-1.4.88-19.37-1.55-38.74-3.09-58.11-4.64l-11.84-9.47c-.43-.32-.86-.64-1.3-.96-1.46-1.21-2.93-2.41-4.39-3.62-3.14-4.33-6.29-8.66-9.43-13-1.21-3.01-2.42-6.02-3.64-9.04-.77-1.21-1.53-2.43-2.3-3.64,1.98-19.04,3.96-38.08,5.94-57.12,3-3.96,6-7.92,9-11.88,2.04-2.04,4.08-4.08,6.12-6.13,3.94-3.01,7.89-6.02,11.83-9.02,16.33-2.03,32.66-4.06,48.99-6.1,2.73.38,5.46.77,8.19,1.15,1.56.78,3.12,1.57,4.68,2.35,2.66-1.1,5.33-2.21,7.99-3.31.06-43.95.17-87.89-.39-131.83,0-.47-8.79-.83-13.47-1.24-.43.28-.86.57-1.29.85-.74.08-1.47.17-2.21.25-.45.3-.89.6-1.34.9-.72.1-1.43.21-2.15.31-8.19,2.33-16.38,4.65-24.56,6.98-10.14,2.75-20.29,5.5-30.43,8.24-.43.28-.86.57-1.29.85-.74.08-1.47.17-2.21.25-.45.3-.89.6-1.34.9-.72.1-1.43.2-2.15.3-8.19,2.33-16.38,4.66-24.56,7-10.14,2.75-20.29,5.5-30.43,8.24-.43.28-.86.57-1.29.85-.74.08-1.47.17-2.21.25-.45.3-.89.6-1.34.9-.72.1-1.43.21-2.15.31-8.19,2.33-16.38,4.65-24.56,6.98-10.14,2.75-20.29,5.5-30.43,8.24-.43.28-.86.57-1.29.85-.74.08-1.47.17-2.21.25-.45.3-.89.6-1.34.9-.72.1-1.43.21-2.15.31-1.88,1.87-3.77,3.74-5.65,5.6-.13,70.18-.26,140.35-.39,210.53-.31,1.6-.62,3.2-.93,4.8-3.04,10.49-6.09,20.97-9.13,31.46-2.04,3.11-4.09,6.23-6.13,9.34-2.73,2.73-5.46,5.47-8.19,8.2-3.52,2.3-7.05,4.59-10.57,6.89-29.15,15.93-56.4,12.9-81.84-8.22-.46-.34-.92-.68-1.38-1.03-5.79-8.53-11.58-17.05-17.36-25.58-.29-.43-.57-.86-.86-1.28,0-16.39,0-32.78,0-49.16l.86-1.27c14.54-38.7,69.62-58.29,98.26-34.94l2.37,1.34c-.04-.83-.08-1.66-.12-2.49.04-77.58-1.43-155.23,1.95-232.66.45-10.22,24.33-23.65,39.59-28.28,73.01-22.14,146.76-41.86,220.34-62.06,4.28-1.18,9.46.9,14.22,1.46Zm-52.71,280.62c-14.36,7.21-37.62,11.82-40.7,22.33-3.43,11.71,8.49,37.36,19.28,41.16,10.98,3.87,36.45-8.18,41.23-19.38,4.31-10.09-10.8-28.47-17.35-43.2-.82-.3-1.64-.61-2.47-.91Zm31.91-217.5c-7.27-13.8-11.02-23.07-12.15-22.76-67.73,18.45-135.43,37.1-202.39,58.1-4.7,1.48-3.82,20.79-5.53,31.82,1.79.07,3.72.61,5.36.15,57.8-16.18,115.69-32.09,173.29-48.98,13.3-3.9,25.6-11.2,41.43-18.32Zm-330.88,312.14c-.02,5.22-.04,10.44-.06,15.66,12.91,9.22,27.75,27.62,38.27,25.42,14.21-2.97,25.12-21.78,37.44-33.79-12.02-11.37-23.05-30.09-36.37-31.89-11.77-1.59-26.1,15.67-39.29,24.61Z"/>
      <path class="cls-1" d="m597.78,463.2c-.43-4.58-1.23-9.15-1.23-13.73-.07-93.41-.07-186.82,0-280.23,0-3.79.81-7.59,1.24-11.38.35,1.19,1,2.39,1,3.58.05,99.39.05,198.79,0,298.18,0,1.19-.66,2.39-1.01,3.58Z"/>
      <path class="cls-1" d="m349.75,533.45c.31-1.6.62-3.2.93-4.8-.31,1.6-.62,3.2-.93,4.8Z"/>
      <path class="cls-1" d="m460.81,480.7c.77,1.21,1.53,2.43,2.3,3.64-.77-1.21-1.53-2.43-2.3-3.64Z"/>
      <path class="cls-1" d="m139.23,358.01c.31-1.6.62-3.2.93-4.8-.31,1.6-.62,3.2-.93,4.8Z"/>
      <path class="cls-1" d="m227.99,156.75c1.19,1.18,2.38,2.36,3.57,3.54-1.19-1.18-2.38-2.36-3.57-3.54Z"/>
      <path class="cls-1" d="m315.67,466.7c.04.83.08,1.66.12,2.49l-2.37-1.34c.75-.38,1.5-.77,2.25-1.15Z"/>
      <path class="cls-1" d="m22.09,404.73c.43.32.86.64,1.29.95-.43-.32-.86-.64-1.29-.95Z"/>
      <path class="cls-1" d="m94.75,419.62c.42-.29.85-.57,1.27-.86-.42.29-.85.57-1.27.86Z"/>
      <path class="cls-1" d="m212.55,98.22c-.3-.33-.59-.66-.89-1,.3.33.59.66.89,1Z"/>
      <path class="cls-1" d="m183.4,120.44c.46.34.92.68,1.37,1.02-.46-.34-.92-.68-1.37-1.02Z"/>
      <path class="cls-1" d="m215.16,502.8l-.86,1.27.86-1.27Z"/>
      <path class="cls-1" d="m481.86,510.95l-.55.15-.56-.11c-.04-.33-.1-.66-.18-.99.43.32.86.64,1.3.96Z"/>
      <path class="cls-1" d="m230.4,231.8c-.31.31-.63.62-.94.93.31-.31.63-.62.94-.93Z"/>
      <path class="cls-1" d="m214.3,553.23c.29.43.57.86.86,1.28-.29-.43-.57-.86-.86-1.28Z"/>
      <path class="cls-1" d="m232.52,580.1c.46.34.92.68,1.38,1.03-.46-.34-.92-.68-1.38-1.03Z"/>
      <path class="cls-1" d="m3.77,328.64l.86-1.28-.86,1.28Z"/>
      <path class="cls-1" d="m541.52,426.7c-.82-.3-1.64-.61-2.47-.91.82.3,1.64.61,2.47.91Z"/>
    </g>
  </g>
</svg>