<?xml version="1.0" encoding="UTF-8"?>
<svg id="Layer_2" data-name="Layer 2" xmlns="http://www.w3.org/2000/svg" viewBox="0 0 610.4 541.34">
  <defs>
    <style>
      .cls-1 {
        fill: #fff;
      }
    </style>
  </defs>
  <g id="Layer_1-2" data-name="Layer 1">
    <path class="cls-1" d="m0,157.82C7.5,102.78,29.8,56.15,78.02,25.44,157.47-25.15,252.61,3.04,301.65,90.8c.53.94.78,10.06,5.38,2.77C363.04,4.76,443.26-22.94,522.28,19.55c78.37,42.14,110.81,147.16,71.21,233.46-34.48,75.15-97.96,125.13-157.79,177.97-41.49,36.65-83.88,72.28-126,108.22-1.71,1.46-5.93,2.75-6.93,1.85-83.16-75.02-175.29-140.3-247.97-226.72C25.35,279.3,5.82,239.46,0,193.56v-35.74ZM154.13,37.26c-3.9.69-15.25,1.63-25.98,4.73C39.81,67.53,7.55,178.98,64.64,265.73c50.69,77.02,125.53,130.13,193.77,189.55,46.05,40.09,47.28,40.06,93.17.1,68.09-59.29,142.54-112.45,193.44-189.06,35.71-53.74,41.06-111.11,8.36-168.17-25.19-43.94-65.59-66.01-115.96-60.02-63.23,7.52-93.76,52.81-115.15,107.76-3.66,9.4-20.16,1.7-30.64,3.03-1.62.21-4.77-3.24-5.5-5.54-20.07-63.79-69.93-106.38-131.99-106.12Z"/>
  </g>
</svg>