<?xml version="1.0" encoding="UTF-8"?>
<svg id="Layer_2" data-name="Layer 2" xmlns="http://www.w3.org/2000/svg" viewBox="0 0 529.39 600">
  <defs>
    <style>
      .cls-1 {
        fill: #fff;
      }
    </style>
  </defs>
  <g id="Layer_1-2" data-name="Layer 1">
    <g>
      <path class="cls-1" d="m264.29,595.81c-23.28,0-47.14,3.33-69.71-.67-53-9.38-100.36-62.04-107.86-117.23-1.86-13.65-5.65-19.49-20.24-22.6C20.9,445.57-4.71,414.3.72,373.49c2.14-16.05,13.37-30.86,20.14-46.37,1.54-3.52,3.67-8.57,2.31-11.3C-17.23,235.25,12.19,95.32,124.86,34.21c102.01-55.33,237.97-42.55,323.4,31.24,69.3,59.85,94.31,177.47,57.81,249.89-1.42,2.82-.24,8.65,1.91,11.3,43.07,53.02,18.42,118.5-49.45,129.99-9.08,1.54-13.16,3.58-15.02,14.2-9.94,56.85-38.78,101.52-94.94,120.22-26.11,8.7-55.92,6.31-84.05,8.95-.08-1.4-.15-2.79-.23-4.19Zm140.11-165.68v-.06c11.5,0,23.08.84,34.49-.17,24.22-2.16,47.55-7.82,58.32-32.93,9.35-21.79-.22-40.43-15.72-55.11-11.1-10.51-12.66-19.94-5.4-32.61,37.33-65.12,12.86-175.8-52.86-226.61-72.21-55.83-153.08-66.52-238.78-41.52C61.29,77.05,4.86,198.9,55.77,315.56c3.9,8.93,2.59,15.69-4.48,22.17-12.05,11.04-21.27,23.99-22.54,40.85-1.87,24.71,17.9,46.26,48.4,49.27,26.59,2.63,53.53,1.88,80.33,2.18,11.96.13,17.67,5.7,17.94,17.38.13,5.74-1.91,13.09.89,16.82,3.28,4.37,10.65,5.93,16.54,7.77.75.24,4.43-5.03,4.74-7.96,1.01-9.33,4.32-16.4,14.73-16.58,11.04-.19,15.57,7.25,14.9,16.92-.8,11.69,7.16,7.39,12.48,7.99,6,.68,11.04,1.04,10.28-8.26-.76-9.24,3.74-16.4,14.19-16.66,10.44-.26,15.23,6.54,14.98,15.91-.2,7.68,2.16,10.13,9.51,9.13,6.1-.83,14.35,3.31,13.33-9.26-.76-9.29,4.55-16.08,14.99-15.79,9.88.28,13.81,6.88,14.26,15.86.25,5.04-1.14,10.08,7.29,9.33,7.33-.65,14.6.05,15.07-10.08.22-4.78.08-9.58.09-14.38.02-12.07,5.59-18.38,18.14-18.09,10.86.26,21.73.05,32.59.05Zm-140.39,137.2c21.38,0,43.41,3.35,63.99-.68,46.21-9.04,70.48-42.78,83.87-85.23,6.96-22.06,6.07-22.34-17.2-22.33-1.6,0-3.57-.6-4.72.12-2.5,1.57-6.24,3.54-6.59,5.8-3.76,23.86-17.8,36.47-42.33,36.49-6.7,0-10.59.45-9.96,8.96.7,9.58-4.73,16.46-14.52,16.56-9.89.1-15.47-6.86-14.65-16.38,1.02-11.78-6.66-8.51-12.77-9.07-6.77-.62-10.54.47-9.97,8.93.64,9.54-4.72,16.49-14.57,16.52-9.85.03-15.25-6.85-14.66-16.42.51-8.26-2.93-9.77-9.87-9.02-6,.65-13.84-2.87-12.85,8.96.79,9.52-4.68,16.52-14.58,16.48-9.79-.04-15.27-6.84-14.61-16.46.57-8.31-2.99-9.08-9.86-9.08-24.58.02-38.87-12.69-42.35-36.37-.32-2.19-2.98-5.74-4.57-5.75-9.28-.04-18.56.79-27.84,1.45-.02,0,.08,1.78.13,2.73,2.41,45.79,43.16,95.79,87.4,103.16,20.49,3.41,42.01.58,63.07.61Z"/>
      <path class="cls-1" d="m132.88,211.03c29,3.72,58.06,16.97,74.42,49.28,12.1,23.9,4.63,51.75-17.03,70.64-19.89,17.35-48.65,20.63-69.96,6.28-28.17-18.96-42.39-46.5-42.31-80.23.08-29.13,20.15-46.83,54.88-45.97Zm-25.78,52.71c1.03,15.14,8.72,31.15,22.43,44.14,13.01,12.32,29.59,12.07,42.92-.12,13-11.89,15.08-29.41,3.89-42.74-12.84-15.28-29.66-23.94-49.79-24.8-14.06-.6-19.52,5.36-19.45,23.52Z"/>
      <path class="cls-1" d="m398.81,210.98c31.82-.37,50.95,15.96,52.01,43.69,1.37,35.8-13.64,64.64-44.08,83.7-24.35,15.24-55.61,8.08-75.67-15.19-18.72-21.72-20.18-52.64-2.38-74.75,18.96-23.55,44.02-36.07,70.11-37.45Zm23.23,53.17c.2-18.84-5.54-24.93-20.8-23.89-20.41,1.4-37.39,10.49-49.88,26.6-9.68,12.49-7.18,29.06,4.84,40.51,11.91,11.34,27.71,13.08,39.99,3.29,15.99-12.73,24.26-29.87,25.85-46.52Z"/>
      <path class="cls-1" d="m264.23,414.71c-6.39,0-12.78.07-19.17-.01-26.05-.32-42.72-22.94-33.65-47.22,7.33-19.62,16.14-38.71,25.01-57.71,5.35-11.47,14.92-18.5,27.95-18.53,13.44-.04,23.11,7.2,28.6,19.06,8.54,18.45,16.94,37.02,24.27,55.98,9.74,25.2-6.7,48.19-33.84,48.43-6.39.06-12.78,0-19.17,0Zm-.51-28.86c6.06,0,12.13,0,18.19,0,7.66-.01,10.78-3.3,7.55-10.82-7.13-16.62-14.31-33.23-21.6-49.78-.69-1.56-2.26-2.73-3.43-4.08-1.11,1.42-2.58,2.7-3.29,4.3-5.01,11.32-9.74,22.77-14.81,34.07-12.38,27.62-12.78,26.64,17.38,26.31Z"/>
    </g>
  </g>
</svg>