<?xml version="1.0" encoding="UTF-8"?>
<svg id="Layer_2" data-name="Layer 2" xmlns="http://www.w3.org/2000/svg" viewBox="0 0 575.67 628.9">
  <defs>
    <style>
      .cls-1 {
        fill: #fff;
      }
    </style>
  </defs>
  <g id="Layer_1-2" data-name="Layer 1">
    <g>
      <path class="cls-1" d="m151.16,253.66c129.21.01,277.42.12,406.63-.12,13.12-.02,17.97,5.31,17.89,18.11-.56,94.69.61,189.42-1.94,284.06-.81,29.89-41.77,66.15-71.8,72.15-1.61.35-3.22.69-4.83,1.04h-150.88c-5.15-4.2-9.32-27.02-6.35-34.17,2.89-6.97,9.14-7.31,15.7-7.29,44.24.12,88.48.54,132.7-.12,26.67-.4,43.51-14.34,44.04-41.68,1-51.62.25-103.28.4-154.92.01-4.88-2.83-4.04-5.66-4.04-148.88,0-297.76.01-446.65-.08-4.04,0-5.68.54-5.66,5.23.19,50.67-.29,101.34.3,152,.28,24.12,12.75,41.53,37.37,42.58,46.09,1.97,194.32.94,240.49,1.05,6.77.02,13.48-.33,16.92,7.21,3.32,7.28-1.72,29.59-5.82,34.22H111.13c-1.96-.38-3.92-.77-5.87-1.15-28.47-3.36-63.61-46.43-63.68-75.91-.22-84.98-.99-169.97.32-254.92.51-32.97-31.92-57.48-39.95-88.02-9.47-36.03,17.02-84.16,52.46-94.55C184.52,62.02,307.53,35.9,430.68,1.38c31.34-8.79,76.7,26.07,86.96,60.34,6.22,20.79,30.87,41.76,37.15,62.54,3.29,10.89-19.29,16.85-30.1,19.97-123.82,35.75-247.59,71.65-371.37,107.53-.87.25-1.66.8-2.49,1.2-.84.2-1.67.4-2.51.59.94.04,1.89.07,2.83.11Zm197.82-83.5c.26-.19.52-.38.78-.57-.31-.31-.63-.62-.94-.93-14.06-13.47-30.43-25.26-41.71-40.76-26.5-36.41-58.07-43.87-97.29-23.31-.34.18-.72.34-1.09.39-5.14.77-4.21,2.5-1.18,5.39,26.07,24.87,52.01,49.88,78.12,74.71,1.36,1.29,4.18,2.27,5.87,1.8,19.2-5.39,38.31-11.09,57.45-16.71Zm-259.85-30.46c-18.85,4.6-42.35,17.85-45.06,36.8-3.65,25.55,20.79,44.84,25.53,68.96.9,4.56,2.51,5.33,6.87,4.04,30.8-9.12,61.67-18.04,92.55-26.87,4.2-1.2,4.92-1.97,1.37-5.35-26.23-24.95-52.27-50.09-78.39-75.15-1.04-1-2.21-1.87-2.87-2.42ZM430.69,35.06c-19.03,5.51-22.04,12.25-44.95,18.64-4.92,1.37-5.83,2.25-1.76,6.12,25.96,24.67,51.73,49.53,77.69,74.2,1.36,1.29,3.96,2.12,5.84,1.91,33.36-3.6,40.99-13.85,20.7-50.42-2.65-4.78-14.33-22.12-16-27.48-6.11-19.62-16.92-20.76-41.53-22.97ZM125.73,277.9q-50.86-.45-50.86,50.33c0,10.12.16,20.25-.09,30.36-.09,3.53,1.01,3.96,4.41,4.62,35.86,6.93,59.96-5.12,72.76-40.73,5.66-15.75,16.11-29.77,24.39-44.58h-50.61Zm355.73,84.37q51.17.75,51.17-50.45c0-10.13.12-20.27-.14-30.39-.03-1.35-1.8-3.69-2.99-3.84-31.56-4.08-60.08-1.94-70.62,35.71-.56,2-2.03,3.74-3.09,5.59-8.26,14.46-16.53,28.92-24.79,43.38h50.46Zm-219.37-167.03c-1.79-1.64-2.96-2.66-4.07-3.73-25.87-24.81-51.73-49.64-77.61-74.44-1.1-1.05-2.66-2.95-3.52-2.71-20.15,5.62-40.24,11.49-60.34,17.31,10.26,10.26,20.51,20.54,30.79,30.78,3.87,3.85,8.6,7.07,11.63,11.47,25.37,36.97,57.63,44.38,96.9,23.36,1.7-.91,3.71-1.24,6.22-2.05Zm115.48-33.19c9.14-2.61,17.74-6.19,26.66-7.41,33.06-4.53,34.09-13.08,8.98-35.27-34.16-30.18-61.26-73.93-116.52-39.78-.62.38-1.8.1-2.19.56-.57.68-1.17,2.3-.86,2.6,27.16,26.24,54.4,52.4,81.68,78.51.59.57,1.69.6,2.26.79Zm-2.34,200.36c7.12-2.51,22.01,7.36,29.25-3.38,16.65-24.73,30.43-51.39,45.45-77.23,1.77-3.04,2.15-3.72-2.27-4.55-43.26-8.16-74.2,5.09-88.09,49.28-.91,2.89-3.05,5.39-4.56,8.1-5.18,9.25-10.34,18.52-15.51,27.78h35.73Zm-186.76,2.03c10.94-1.44,27.47,1.11,31.85-5.02,17.52-24.52,31.24-51.75,46.47-77.92,1.82-3.13,1.61-3.53-2.23-4.21-42.21-7.48-74.04,3.48-87.66,48.08-1,3.26-3.06,6.34-5.17,9.08-17.94,23.22-18.61,36.26,16.73,29.98Zm92.82-2.13c9.27-1.97,24.4,7.15,31.18-2.77,17.04-24.92,30.85-52.04,46.07-78.21,1.8-3.1,1.65-3.37-2.15-4.06-43.2-7.88-74.78,4.58-88.54,49.39-.89,2.89-2.76,5.61-4.63,8.06-17.2,22.51-18.92,35.99,18.06,27.59Z"/>
      <path class="cls-1" d="m105.25,627.75c1.96.38,3.92.77,5.87,1.15h-5.85c.1-.26.23-.51.27-.78.01-.11-.19-.25-.29-.37Z"/>
      <path class="cls-1" d="m497.09,628.9c1.61-.35,3.22-.69,4.83-1.04-.2.32-.26.67-.16,1.04h-4.68Z"/>
      <path class="cls-1" d="m151.16,253.66c-.94-.04-1.89-.07-2.83-.11.84-.2,1.67-.4,2.51-.59,0,0,.45.22.45.22l-.13.48Z"/>
      <path class="cls-1" d="m348.97,170.16c-.05-.5-.11-1-.16-1.5.31.31.63.62.94.93-.26.19-.52.38-.78.57Z"/>
      <path class="cls-1" d="m258.51,485.59c0-19.1-.37-38.21.13-57.3.32-12.2,7.61-17.23,18.33-11.26,33.94,18.88,67.57,38.35,100.92,58.26,10.14,6.05,10.21,15.14-.03,21.24-33.38,19.87-67,39.33-100.94,58.23-10.81,6.02-17.95.82-18.28-11.26-.52-19.28-.14-38.59-.14-57.89Zm23.62,37.56c.07.33.14.65.22.98.43-.21.87-.43,1.3-.64,20.87-11.92,41.72-23.86,62.62-35.73,4.67-2.65.41-3.39-.97-4.19-19.78-11.5-39.66-22.84-59.42-34.37-3.08-1.79-4.03-1.94-3.99,2.15.2,23.93.18,47.87.24,71.8Z"/>
      <path class="cls-1" d="m282.13,523.15c.51.11,1.01.22,1.52.34-.43.22-.87.43-1.3.64-.07-.33-.14-.65-.22-.98Z"/>
    </g>
  </g>
</svg>