<?xml version="1.0" encoding="UTF-8"?>
<svg id="Layer_2" data-name="Layer 2" xmlns="http://www.w3.org/2000/svg" viewBox="0 0 145.32 82.4">
  <defs>
    <style>
      .cls-1 {
        fill: #fff;
      }
    </style>
  </defs>
  <g id="Layer_1-2" data-name="Layer 1">
    <g>
      <rect class="cls-1" x="84.25" width="21.4" height="16.85"/>
      <rect class="cls-1" x="83.85" y="33.7" width="21.4" height="15"/>
      <rect class="cls-1" x="83.85" y="65.55" width="21.4" height="16.85"/>
      <polygon class="cls-1" points="123.92 33.7 123.92 16.85 105.65 16.85 105.65 33.7 123.52 33.7 123.52 48.7 145.32 48.7 145.32 33.7 123.92 33.7"/>
      <rect class="cls-1" x="105.25" y="48.7" width="18.27" height="16.85"/>
      <path class="cls-1" d="m42.2,54.91h-6.63V.42H0v45.92c0,11.96,3.56,20.7,10.51,26.19,7.11,5.5,16.33,8.25,27.81,8.25s20.86-2.75,27.81-8.25c7.11-5.5,10.67-14.23,10.67-26.19V.42h-34.6v54.49Z"/>
    </g>
  </g>
</svg>