<?xml version="1.0" encoding="UTF-8"?>
<svg id="Layer_2" data-name="Layer 2" xmlns="http://www.w3.org/2000/svg" viewBox="0 0 388.01 81.31">
  <defs>
    <style>
      .cls-1 {
        fill: #fff;
      }
    </style>
  </defs>
  <g id="Layer_1-2" data-name="Layer 1">
    <g>
      <path class="cls-1" d="m147.02,31.14c0,9.01-2.16,16.24-6.47,21.82-4.31,5.46-11.16,8.25-20.55,8.25h-8.88v18.2h-27.15v-44.84h42.75v-6.47h-42.75V.95h36.03c9.39,0,16.24,2.79,20.55,8.38,4.31,5.45,6.47,12.68,6.47,21.81Z"/>
      <path id="Layer" class="cls-1" d="m42.2,55.44h-6.63V.95H0v45.92c0,11.96,3.56,20.7,10.51,26.19,7.11,5.5,16.33,8.25,27.81,8.25s20.86-2.75,27.81-8.25c7.11-5.5,10.67-14.23,10.67-26.19V.95h-34.6v54.49Z"/>
      <path id="Layer-2" data-name="Layer" class="cls-1" d="m353.41,36.94h-6.63V.95h-35.57v30.33c0,7.9,3.56,13.67,10.51,17.3,7.11,3.63,16.33,5.45,27.81,5.45s20.86-1.82,27.81-5.45c7.11-3.63,10.67-9.4,10.67-17.3V.95h-34.6v35.99Z"/>
      <path id="Layer-3" data-name="Layer" class="cls-1" d="m264.87,25.87h-6.63v54.49h-35.57v-45.92c0-11.96,3.56-20.7,10.51-26.19,7.11-5.5,16.33-8.25,27.81-8.25s20.86,2.75,27.81,8.25c7.11,5.5,10.67,14.23,10.67,26.19v45.92h-34.6V25.87Z"/>
      <path id="Layer-4" data-name="Layer" class="cls-1" d="m153.32.95h29.78v78.45h-29.78V.95Z"/>
      <path id="Layer-5" data-name="Layer" class="cls-1" d="m334.72,64.78h29.78v15h-29.78v-15Z"/>
      <path id="Layer-6" data-name="Layer" class="cls-1" d="m190.02,64.78h21.8v15h-21.8v-15Z"/>
    </g>
  </g>
</svg>